<?xml version="1.0" encoding="UTF-8"?>
<svg xmlns="http://www.w3.org/2000/svg" width="512" height="512" viewBox="0 0 512 512"><rect x="20" y="20" width="220" height="220" rx="36" fill="#FF6B6B"/><rect x="80" y="80" width="100" height="100" rx="12" fill="#FFFFFF"/><circle cx="130" cy="130" r="22" fill="#FF6B6B"/><rect x="272" y="20" width="220" height="220" rx="36" fill="#FBB13C"/><rect x="332" y="80" width="100" height="100" rx="12" fill="#FFFFFF"/><circle cx="382" cy="130" r="22" fill="#FBB13C"/><rect x="20" y="272" width="220" height="220" rx="36" fill="#14B8A6"/><rect x="80" y="332" width="100" height="100" rx="12" fill="#FFFFFF"/><circle cx="130" cy="382" r="22" fill="#14B8A6"/><rect x="312" y="382" width="140" height="100" rx="14" fill="#38BDF8"/><path d="M 342,387 V 338 A 40,40 0 0 1 422,338 V 387" stroke="#38BDF8" stroke-width="24" fill="none" stroke-linecap="round"/><rect x="376" y="414" width="12" height="36" rx="6" fill="#FFFFFF"/></svg>
